<svg width="16" height="16" viewBox="0 0 16 16" fill="none" xmlns="http://www.w3.org/2000/svg">
<path d="M6.3 11.9833C6.2 11.9833 6.10278 11.9639 6.00833 11.925C5.91389 11.8861 5.82778 11.8278 5.75 11.75L2.73333 8.73333C2.57778 8.57778 2.5 8.38889 2.5 8.16667C2.5 7.94444 2.57778 7.75556 2.73333 7.6C2.88889 7.44444 3.075 7.36667 3.29167 7.36667C3.50833 7.36667 3.7 7.44444 3.86667 7.6L6.3 10.0333L12.1333 4.21667C12.2889 4.06111 12.475 3.98056 12.6917 3.975C12.9083 3.96944 13.0944 4.05 13.25 4.21667C13.4056 4.37222 13.4833 4.56111 13.4833 4.78333C13.4833 5.00556 13.4056 5.19444 13.25 5.35L6.85 11.75C6.77222 11.8278 6.68611 11.8861 6.59167 11.925C6.49722 11.9639 6.4 11.9833 6.3 11.9833Z" fill="#0B8749"/>
</svg>
