<svg width="32" height="32" viewBox="0 0 32 32" fill="none" xmlns="http://www.w3.org/2000/svg">
<path d="M13.8822 31.6499C13.8906 31.8456 14.0517 32 14.2476 32H17.9285C18.1271 32 18.2894 31.8414 18.2941 31.6428L18.3597 28.8398C18.3617 28.7529 18.4247 28.6796 18.5101 28.6632C20.2688 28.3269 21.8998 27.6307 23.3234 26.6541C23.3953 26.6047 23.4922 26.6119 23.5553 26.6721L25.5951 28.6187C25.7388 28.7558 25.9657 28.7531 26.1062 28.6127L28.7089 26.0099C28.8475 25.8714 28.8522 25.6483 28.7197 25.504L26.7792 23.3905C26.7218 23.3279 26.7151 23.2342 26.762 23.1635C27.7131 21.7313 28.3836 20.0965 28.695 18.3378C28.7103 18.2514 28.7838 18.1872 28.8715 18.1849L31.6439 18.1122C31.842 18.107 32 17.9449 32 17.7466V14.0634C32 13.868 31.8465 13.7071 31.6513 13.698L31.548 13.6932C31.5424 13.693 31.5382 13.6983 31.5398 13.7037C31.5413 13.709 31.5374 13.7143 31.5319 13.7143H24.2175C24.0949 13.7143 24.007 13.8325 24.0388 13.9509C24.2222 14.6334 24.32 15.351 24.32 16.0914C24.32 20.6359 20.6359 24.32 16.0914 24.32C11.5469 24.32 7.86286 20.6359 7.86286 16.0914C7.86286 11.5469 11.5469 7.86286 16.0914 7.86286C19.0969 7.86286 21.726 9.47411 23.162 11.8799C23.2249 11.9852 23.3709 12.0044 23.4563 11.9164L28.8265 6.3784C28.8434 6.36099 28.8572 6.34055 28.8637 6.31719C28.8982 6.19396 28.8667 6.05645 28.7701 5.95985L26.1657 3.35539C26.0275 3.21725 25.8052 3.21207 25.6608 3.34362L23.395 5.4075C23.3324 5.4645 23.2389 5.47099 23.1684 5.42412C21.7856 4.50487 20.2138 3.84733 18.5236 3.52222C18.4385 3.50584 18.3757 3.43283 18.3734 3.34619L18.2951 0.356133C18.2899 0.157955 18.1277 0 17.9295 0H14.2462C14.0509 0 13.89 0.153532 13.8809 0.348673L13.7403 3.36342C13.7363 3.44821 13.6745 3.519 13.5912 3.53548C11.9354 3.86334 10.3945 4.51056 9.03532 5.41027C8.96484 5.45692 8.87157 5.45035 8.80909 5.39344L6.58737 3.36975C6.44295 3.2382 6.22064 3.24338 6.08251 3.38152L3.47805 5.98598C3.33786 6.12616 3.3349 6.3525 3.47136 6.49631L5.50398 8.63833C5.56387 8.70145 5.57088 8.79795 5.52173 8.86974C4.59523 10.2232 3.92192 11.7636 3.57004 13.4227C3.55256 13.5051 3.48189 13.5658 3.39774 13.5693L0.350126 13.6994C0.154388 13.7077 0 13.8688 0 14.0648V17.7456C0 17.9443 0.15857 18.1066 0.357162 18.1112L3.31005 18.1803C3.39795 18.1824 3.4718 18.2467 3.4871 18.3333C3.79996 20.1043 4.47694 21.7496 5.43795 23.1892C5.48518 23.2599 5.47857 23.3539 5.42104 23.4166L3.52844 25.4778C3.39594 25.6222 3.4007 25.8453 3.53923 25.9838L6.142 28.5866C6.28246 28.727 6.50937 28.7297 6.65308 28.5925L8.64964 26.6872C8.71268 26.6271 8.80932 26.6199 8.88127 26.669C10.2833 27.6266 11.8856 28.3126 13.6123 28.6515C13.696 28.6679 13.758 28.7392 13.7617 28.8244L13.8822 31.6499Z" fill="#007BFF"/>
<path d="M13.5314 15.9086C13.5314 14.6967 14.5138 13.7143 15.7257 13.7143H31.7092C31.8698 13.7143 32 13.8445 32 14.0051V17.812C32 17.9726 31.8698 18.1029 31.7092 18.1029H15.7257C14.5138 18.1029 13.5314 17.1204 13.5314 15.9086Z" fill="#007BFF"/>
<path d="M17.0057 15.9086C17.0057 16.5145 16.5145 17.0057 15.9086 17.0057C15.3026 17.0057 14.8114 16.5145 14.8114 15.9086C14.8114 15.3026 15.3026 14.8114 15.9086 14.8114C16.5145 14.8114 17.0057 15.3026 17.0057 15.9086Z" fill="#007BFF"/>
</svg>
