<svg width="199" height="32" viewBox="0 0 199 32" fill="none" xmlns="http://www.w3.org/2000/svg">
<path d="M13.8822 31.6499C13.8906 31.8456 14.0517 32 14.2476 32H17.9285C18.1271 32 18.2894 31.8414 18.2941 31.6428L18.3597 28.8398C18.3617 28.7529 18.4247 28.6796 18.5101 28.6632C20.2688 28.3269 21.8998 27.6307 23.3234 26.6541C23.3953 26.6047 23.4922 26.6119 23.5553 26.6721L25.5951 28.6187C25.7388 28.7558 25.9657 28.7531 26.1062 28.6127L28.7089 26.0099C28.8475 25.8714 28.8522 25.6483 28.7197 25.504L26.7792 23.3905C26.7218 23.3279 26.7151 23.2342 26.762 23.1635C27.7131 21.7313 28.3836 20.0965 28.695 18.3378C28.7103 18.2514 28.7838 18.1872 28.8715 18.1849L31.6439 18.1122C31.842 18.107 32 17.9449 32 17.7466V14.0634C32 13.868 31.8465 13.7071 31.6513 13.698L31.548 13.6932C31.5424 13.693 31.5382 13.6983 31.5398 13.7037C31.5413 13.709 31.5374 13.7143 31.5319 13.7143H24.2175C24.0949 13.7143 24.007 13.8325 24.0388 13.9509C24.2222 14.6334 24.32 15.351 24.32 16.0914C24.32 20.6359 20.6359 24.32 16.0914 24.32C11.5469 24.32 7.86286 20.6359 7.86286 16.0914C7.86286 11.5469 11.5469 7.86286 16.0914 7.86286C19.0969 7.86286 21.726 9.47411 23.162 11.8799C23.2249 11.9852 23.3709 12.0044 23.4563 11.9164L28.8265 6.3784C28.8434 6.36099 28.8572 6.34055 28.8637 6.31719C28.8982 6.19396 28.8667 6.05645 28.7701 5.95985L26.1657 3.35539C26.0275 3.21725 25.8052 3.21207 25.6608 3.34362L23.395 5.4075C23.3324 5.4645 23.2389 5.47099 23.1684 5.42412C21.7856 4.50487 20.2138 3.84733 18.5236 3.52222C18.4385 3.50584 18.3757 3.43283 18.3734 3.34619L18.2951 0.356133C18.2899 0.157955 18.1277 0 17.9295 0H14.2462C14.0509 0 13.89 0.153532 13.8809 0.348673L13.7403 3.36342C13.7363 3.44821 13.6745 3.519 13.5912 3.53548C11.9354 3.86334 10.3945 4.51056 9.03532 5.41027C8.96484 5.45692 8.87157 5.45035 8.80909 5.39344L6.58737 3.36975C6.44295 3.2382 6.22064 3.24338 6.08251 3.38152L3.47805 5.98598C3.33786 6.12616 3.3349 6.3525 3.47136 6.49631L5.50398 8.63833C5.56387 8.70145 5.57088 8.79795 5.52173 8.86974C4.59523 10.2232 3.92192 11.7636 3.57004 13.4227C3.55256 13.5051 3.48189 13.5658 3.39774 13.5693L0.350126 13.6994C0.154388 13.7077 0 13.8688 0 14.0648V17.7456C0 17.9443 0.15857 18.1066 0.357162 18.1112L3.31005 18.1803C3.39795 18.1824 3.4718 18.2467 3.4871 18.3333C3.79996 20.1043 4.47694 21.7496 5.43795 23.1892C5.48518 23.2599 5.47857 23.3539 5.42104 23.4166L3.52844 25.4778C3.39594 25.6222 3.4007 25.8453 3.53923 25.9838L6.142 28.5866C6.28246 28.727 6.50937 28.7297 6.65308 28.5925L8.64964 26.6872C8.71268 26.6271 8.80932 26.6199 8.88127 26.669C10.2833 27.6266 11.8856 28.3126 13.6123 28.6515C13.696 28.6679 13.758 28.7392 13.7617 28.8244L13.8822 31.6499Z" fill="#007BFF"/>
<path d="M13.5314 15.9086C13.5314 14.6967 14.5138 13.7143 15.7257 13.7143H31.7092C31.8698 13.7143 32 13.8445 32 14.0051V17.812C32 17.9726 31.8698 18.1029 31.7092 18.1029H15.7257C14.5138 18.1029 13.5314 17.1204 13.5314 15.9086Z" fill="#007BFF"/>
<path d="M17.0057 15.9086C17.0057 16.5145 16.5145 17.0057 15.9086 17.0057C15.3026 17.0057 14.8114 16.5145 14.8114 15.9086C14.8114 15.3026 15.3026 14.8114 15.9086 14.8114C16.5145 14.8114 17.0057 15.3026 17.0057 15.9086Z" fill="#007BFF"/>
<path d="M48.508 14.144H56.584V15.152C56.584 16.288 56.392 17.348 56.008 18.332C55.632 19.316 55.092 20.18 54.388 20.924C53.684 21.668 52.844 22.248 51.868 22.664C50.892 23.08 49.812 23.288 48.628 23.288C47.404 23.288 46.292 23.08 45.292 22.664C44.3 22.24 43.444 21.652 42.724 20.9C42.004 20.148 41.452 19.276 41.068 18.284C40.684 17.284 40.492 16.212 40.492 15.068C40.492 13.932 40.684 12.868 41.068 11.876C41.452 10.876 42.004 10.004 42.724 9.26C43.444 8.508 44.3 7.924 45.292 7.508C46.292 7.084 47.404 6.872 48.628 6.872C49.628 6.872 50.508 6.98 51.268 7.196C52.036 7.412 52.696 7.7 53.248 8.06C53.8 8.42 54.268 8.816 54.652 9.248C55.036 9.672 55.356 10.088 55.612 10.496L52.204 12.104C51.876 11.6 51.428 11.16 50.86 10.784C50.3 10.408 49.556 10.22 48.628 10.22C47.98 10.22 47.384 10.348 46.84 10.604C46.304 10.86 45.84 11.212 45.448 11.66C45.056 12.1 44.752 12.616 44.536 13.208C44.328 13.792 44.224 14.412 44.224 15.068C44.224 15.732 44.328 16.356 44.536 16.94C44.752 17.524 45.056 18.04 45.448 18.488C45.84 18.936 46.304 19.288 46.84 19.544C47.384 19.792 47.98 19.916 48.628 19.916C49.196 19.916 49.712 19.844 50.176 19.7C50.64 19.556 51.04 19.348 51.376 19.076C51.72 18.804 51.988 18.484 52.18 18.116C52.38 17.74 52.5 17.328 52.54 16.88H48.508V14.144ZM62.0404 18.848C62.0644 19.2 62.1764 19.512 62.3764 19.784C62.5764 20.056 62.8524 20.272 63.2044 20.432C63.5644 20.584 63.9884 20.66 64.4764 20.66C64.9404 20.66 65.3564 20.612 65.7244 20.516C66.1004 20.42 66.4244 20.3 66.6964 20.156C66.9764 20.012 67.1924 19.864 67.3444 19.712L68.7604 21.968C68.5604 22.184 68.2764 22.396 67.9084 22.604C67.5484 22.804 67.0724 22.968 66.4804 23.096C65.8884 23.224 65.1404 23.288 64.2364 23.288C63.1484 23.288 62.1804 23.084 61.3324 22.676C60.4844 22.268 59.8164 21.668 59.3284 20.876C58.8404 20.084 58.5964 19.116 58.5964 17.972C58.5964 17.012 58.8044 16.148 59.2204 15.38C59.6444 14.604 60.2564 13.992 61.0564 13.544C61.8564 13.088 62.8204 12.86 63.9484 12.86C65.0204 12.86 65.9484 13.056 66.7324 13.448C67.5244 13.84 68.1324 14.424 68.5564 15.2C68.9884 15.968 69.2044 16.928 69.2044 18.08C69.2044 18.144 69.2004 18.272 69.1924 18.464C69.1924 18.656 69.1844 18.784 69.1684 18.848H62.0404ZM65.7724 16.94C65.7644 16.684 65.6964 16.432 65.5684 16.184C65.4404 15.928 65.2484 15.72 64.9924 15.56C64.7364 15.392 64.4084 15.308 64.0084 15.308C63.6084 15.308 63.2684 15.388 62.9884 15.548C62.7164 15.7 62.5084 15.9 62.3644 16.148C62.2204 16.396 62.1404 16.66 62.1244 16.94H65.7724ZM79.2136 23V21.404C79.1416 21.564 78.9576 21.796 78.6616 22.1C78.3736 22.404 77.9896 22.68 77.5096 22.928C77.0296 23.168 76.4696 23.288 75.8296 23.288C74.8696 23.288 74.0296 23.056 73.3096 22.592C72.5896 22.12 72.0296 21.492 71.6296 20.708C71.2296 19.916 71.0296 19.04 71.0296 18.08C71.0296 17.12 71.2296 16.248 71.6296 15.464C72.0296 14.672 72.5896 14.04 73.3096 13.568C74.0296 13.096 74.8696 12.86 75.8296 12.86C76.4456 12.86 76.9856 12.96 77.4496 13.16C77.9136 13.352 78.2896 13.584 78.5776 13.856C78.8656 14.12 79.0656 14.364 79.1776 14.588V13.148H82.8016V23H79.2136ZM74.6056 18.08C74.6056 18.528 74.7096 18.932 74.9176 19.292C75.1256 19.644 75.4016 19.92 75.7456 20.12C76.0976 20.32 76.4856 20.42 76.9096 20.42C77.3496 20.42 77.7376 20.32 78.0736 20.12C78.4096 19.92 78.6736 19.644 78.8656 19.292C79.0656 18.932 79.1656 18.528 79.1656 18.08C79.1656 17.632 79.0656 17.232 78.8656 16.88C78.6736 16.52 78.4096 16.24 78.0736 16.04C77.7376 15.832 77.3496 15.728 76.9096 15.728C76.4856 15.728 76.0976 15.832 75.7456 16.04C75.4016 16.24 75.1256 16.52 74.9176 16.88C74.7096 17.232 74.6056 17.632 74.6056 18.08ZM88.9324 23H85.2844V13.148H88.9324V14.672H88.8724C88.9364 14.488 89.0924 14.256 89.3404 13.976C89.5884 13.688 89.9364 13.432 90.3844 13.208C90.8324 12.976 91.3804 12.86 92.0284 12.86C92.4844 12.86 92.9044 12.932 93.2884 13.076C93.6724 13.212 93.9524 13.344 94.1284 13.472L92.7124 16.436C92.6004 16.3 92.4004 16.16 92.1124 16.016C91.8324 15.864 91.4804 15.788 91.0564 15.788C90.5684 15.788 90.1644 15.912 89.8444 16.16C89.5324 16.408 89.3004 16.708 89.1484 17.06C89.0044 17.412 88.9324 17.744 88.9324 18.056V23ZM115.012 12.86C115.756 12.86 116.412 13.016 116.98 13.328C117.548 13.632 117.992 14.104 118.312 14.744C118.64 15.384 118.804 16.208 118.804 17.216V23H115.216V17.768C115.216 17.08 115.112 16.524 114.904 16.1C114.696 15.676 114.284 15.464 113.668 15.464C113.3 15.464 112.976 15.56 112.696 15.752C112.416 15.944 112.2 16.212 112.048 16.556C111.896 16.892 111.82 17.296 111.82 17.768V23H108.472V17.768C108.472 17.08 108.356 16.524 108.124 16.1C107.9 15.676 107.5 15.464 106.924 15.464C106.556 15.464 106.232 15.56 105.952 15.752C105.672 15.936 105.456 16.2 105.304 16.544C105.16 16.88 105.088 17.288 105.088 17.768V23H101.464V13.148H105.088V14.552C105.184 14.304 105.392 14.052 105.712 13.796C106.04 13.532 106.444 13.312 106.924 13.136C107.404 12.952 107.912 12.86 108.448 12.86C109.032 12.86 109.52 12.948 109.912 13.124C110.304 13.292 110.624 13.52 110.872 13.808C111.128 14.096 111.332 14.408 111.484 14.744C111.596 14.456 111.816 14.168 112.144 13.88C112.48 13.584 112.896 13.34 113.392 13.148C113.896 12.956 114.436 12.86 115.012 12.86ZM129.041 23V21.404C128.969 21.564 128.785 21.796 128.489 22.1C128.201 22.404 127.817 22.68 127.337 22.928C126.857 23.168 126.297 23.288 125.657 23.288C124.697 23.288 123.857 23.056 123.137 22.592C122.417 22.12 121.857 21.492 121.457 20.708C121.057 19.916 120.857 19.04 120.857 18.08C120.857 17.12 121.057 16.248 121.457 15.464C121.857 14.672 122.417 14.04 123.137 13.568C123.857 13.096 124.697 12.86 125.657 12.86C126.273 12.86 126.813 12.96 127.277 13.16C127.741 13.352 128.117 13.584 128.405 13.856C128.693 14.12 128.893 14.364 129.005 14.588V13.148H132.629V23H129.041ZM124.433 18.08C124.433 18.528 124.537 18.932 124.745 19.292C124.953 19.644 125.229 19.92 125.573 20.12C125.925 20.32 126.313 20.42 126.737 20.42C127.177 20.42 127.565 20.32 127.901 20.12C128.237 19.92 128.501 19.644 128.693 19.292C128.893 18.932 128.993 18.528 128.993 18.08C128.993 17.632 128.893 17.232 128.693 16.88C128.501 16.52 128.237 16.24 127.901 16.04C127.565 15.832 127.177 15.728 126.737 15.728C126.313 15.728 125.925 15.832 125.573 16.04C125.229 16.24 124.953 16.52 124.745 16.88C124.537 17.232 124.433 17.632 124.433 18.08ZM142.204 12.86C142.892 12.86 143.564 13 144.22 13.28C144.876 13.56 145.416 14.004 145.84 14.612C146.264 15.212 146.476 16.004 146.476 16.988V23H142.816V17.588C142.816 16.884 142.648 16.356 142.312 16.004C141.976 15.644 141.536 15.464 140.992 15.464C140.632 15.464 140.292 15.56 139.972 15.752C139.66 15.936 139.404 16.2 139.204 16.544C139.012 16.88 138.916 17.268 138.916 17.708V23H135.268V13.148H138.916V14.6C139.012 14.336 139.212 14.072 139.516 13.808C139.828 13.536 140.216 13.312 140.68 13.136C141.152 12.952 141.66 12.86 142.204 12.86ZM156.719 23V21.404C156.647 21.564 156.463 21.796 156.167 22.1C155.879 22.404 155.495 22.68 155.015 22.928C154.535 23.168 153.975 23.288 153.335 23.288C152.375 23.288 151.535 23.056 150.815 22.592C150.095 22.12 149.535 21.492 149.135 20.708C148.735 19.916 148.535 19.04 148.535 18.08C148.535 17.12 148.735 16.248 149.135 15.464C149.535 14.672 150.095 14.04 150.815 13.568C151.535 13.096 152.375 12.86 153.335 12.86C153.951 12.86 154.491 12.96 154.955 13.16C155.419 13.352 155.795 13.584 156.083 13.856C156.371 14.12 156.571 14.364 156.683 14.588V13.148H160.307V23H156.719ZM152.111 18.08C152.111 18.528 152.215 18.932 152.423 19.292C152.631 19.644 152.907 19.92 153.251 20.12C153.603 20.32 153.991 20.42 154.415 20.42C154.855 20.42 155.243 20.32 155.579 20.12C155.915 19.92 156.179 19.644 156.371 19.292C156.571 18.932 156.671 18.528 156.671 18.08C156.671 17.632 156.571 17.232 156.371 16.88C156.179 16.52 155.915 16.24 155.579 16.04C155.243 15.832 154.855 15.728 154.415 15.728C153.991 15.728 153.603 15.832 153.251 16.04C152.907 16.24 152.631 16.52 152.423 16.88C152.215 17.232 152.111 17.632 152.111 18.08ZM168.274 28.268C167.586 28.268 166.902 28.208 166.222 28.088C165.55 27.968 164.922 27.764 164.338 27.476C163.754 27.188 163.262 26.792 162.862 26.288L164.998 24.068C165.182 24.284 165.406 24.496 165.67 24.704C165.942 24.912 166.274 25.084 166.666 25.22C167.066 25.356 167.55 25.424 168.118 25.424C168.646 25.424 169.106 25.332 169.498 25.148C169.89 24.964 170.194 24.696 170.41 24.344C170.634 23.992 170.746 23.564 170.746 23.06V22.82H174.334V23.276C174.334 24.364 174.062 25.28 173.518 26.024C172.982 26.768 172.258 27.328 171.346 27.704C170.434 28.08 169.41 28.268 168.274 28.268ZM170.746 23V21.404C170.674 21.564 170.49 21.796 170.194 22.1C169.906 22.404 169.522 22.68 169.042 22.928C168.562 23.168 168.002 23.288 167.362 23.288C166.402 23.288 165.562 23.056 164.842 22.592C164.122 22.12 163.562 21.492 163.162 20.708C162.762 19.916 162.562 19.04 162.562 18.08C162.562 17.12 162.762 16.248 163.162 15.464C163.562 14.672 164.122 14.04 164.842 13.568C165.562 13.096 166.402 12.86 167.362 12.86C167.978 12.86 168.518 12.96 168.982 13.16C169.446 13.352 169.822 13.584 170.11 13.856C170.398 14.12 170.598 14.364 170.71 14.588V13.148H174.334V23H170.746ZM166.138 18.08C166.138 18.528 166.242 18.932 166.45 19.292C166.658 19.644 166.934 19.92 167.278 20.12C167.63 20.32 168.018 20.42 168.442 20.42C168.882 20.42 169.27 20.32 169.606 20.12C169.942 19.92 170.206 19.644 170.398 19.292C170.598 18.932 170.698 18.528 170.698 18.08C170.698 17.632 170.598 17.232 170.398 16.88C170.206 16.52 169.942 16.24 169.606 16.04C169.27 15.832 168.882 15.728 168.442 15.728C168.018 15.728 167.63 15.832 167.278 16.04C166.934 16.24 166.658 16.52 166.45 16.88C166.242 17.232 166.138 17.632 166.138 18.08ZM180.057 18.848C180.081 19.2 180.193 19.512 180.393 19.784C180.593 20.056 180.869 20.272 181.221 20.432C181.581 20.584 182.005 20.66 182.493 20.66C182.957 20.66 183.373 20.612 183.741 20.516C184.117 20.42 184.441 20.3 184.713 20.156C184.993 20.012 185.209 19.864 185.361 19.712L186.777 21.968C186.577 22.184 186.293 22.396 185.925 22.604C185.565 22.804 185.089 22.968 184.497 23.096C183.905 23.224 183.157 23.288 182.253 23.288C181.165 23.288 180.197 23.084 179.349 22.676C178.501 22.268 177.833 21.668 177.345 20.876C176.857 20.084 176.613 19.116 176.613 17.972C176.613 17.012 176.821 16.148 177.237 15.38C177.661 14.604 178.273 13.992 179.073 13.544C179.873 13.088 180.837 12.86 181.965 12.86C183.037 12.86 183.965 13.056 184.749 13.448C185.541 13.84 186.149 14.424 186.573 15.2C187.005 15.968 187.221 16.928 187.221 18.08C187.221 18.144 187.217 18.272 187.209 18.464C187.209 18.656 187.201 18.784 187.185 18.848H180.057ZM183.789 16.94C183.781 16.684 183.713 16.432 183.585 16.184C183.457 15.928 183.265 15.72 183.009 15.56C182.753 15.392 182.425 15.308 182.025 15.308C181.625 15.308 181.285 15.388 181.005 15.548C180.733 15.7 180.525 15.9 180.381 16.148C180.237 16.396 180.157 16.66 180.141 16.94H183.789ZM192.922 23H189.274V13.148H192.922V14.672H192.862C192.926 14.488 193.082 14.256 193.33 13.976C193.578 13.688 193.926 13.432 194.374 13.208C194.822 12.976 195.37 12.86 196.018 12.86C196.474 12.86 196.894 12.932 197.278 13.076C197.662 13.212 197.942 13.344 198.118 13.472L196.702 16.436C196.59 16.3 196.39 16.16 196.102 16.016C195.822 15.864 195.47 15.788 195.046 15.788C194.558 15.788 194.154 15.912 193.834 16.16C193.522 16.408 193.29 16.708 193.138 17.06C192.994 17.412 192.922 17.744 192.922 18.056V23Z" fill="black"/>
</svg>
